<svg xmlns="http://www.w3.org/2000/svg" viewBox="0 0 252.55 155.1"><defs><style>.a{font-size:43px;fill:#3b97d3;font-family:Moon;}.b{fill:#fff;}.b,.c,.d{stroke:#3c97d3;stroke-miterlimit:10;}.b,.c{stroke-width:9px;}.c,.d{fill:none;}.d{stroke-width:8px;}</style></defs><title>ClusterAt</title><text class="a" transform="translate(5.78 146.32)">Cluster At</text><path class="b" d="M255.24,154.21A17.78,17.78,0,1,1,271.49,135,17.79,17.79,0,0,1,255.24,154.21Zm35,6.19a43.54,43.54,0,1,0-15.54,14.38" transform="translate(-134.04 -88.35)"/><path class="c" d="M271.55,136.49a17.79,17.79,0,1,1-17.78-17.78A17.79,17.79,0,0,1,271.55,136.49Z" transform="translate(-134.04 -88.35)"/><path class="d" d="M271.55,136.49a17.79,17.79,0,1,1-17.78-17.78A17.79,17.79,0,0,1,271.55,136.49Z" transform="translate(-134.04 -88.35)"/><line class="b" x1="136.49" y1="54.01" x2="160.71" y2="69.57"/></svg>